<svg id="Camada_1" data-name="Camada 1" xmlns="http://www.w3.org/2000/svg" viewBox="0 0 1345.86 282.47"><defs><style>.cls-1{fill:#07341b;}.cls-2{fill:#fff;}.cls-2,.cls-3{fill-rule:evenodd;}.cls-3,.cls-4{fill:#008545;}</style></defs><rect class="cls-1" x="91.8" width="100.82" height="282.47" rx="9.22"/><rect class="cls-1" x="1.38" y="90.82" width="282.63" height="100.82" rx="9.22"/><path class="cls-2" d="M159,147.28c-.81,3.53-7.35,2.57-6.59-1.65,6.62-17.38,9.32-38.28,8.13-59.56-1.1-7.1-6.63-10.84-19.23-11.22l0,0a6.08,6.08,0,0,1-5.71,2.85c-3.15,0-7.16-3.21-7.16-7.16a7.16,7.16,0,0,1,13.09-4C157.76,70,165.88,72.63,168,86.72c.57,12.78-.62,25.71-2.44,38.7A189.92,189.92,0,0,1,159,147.28Z" transform="translate(-17.26 -57.49)"/><path class="cls-3" d="M209.88,272.34v58.4a9.3,9.3,0,0,1-9.32,9.22H117.33a9.3,9.3,0,0,1-9.32-9.22v-58.4C117.27,342.94,216.41,323.68,209.88,272.34Z" transform="translate(-17.26 -57.49)"/><path class="cls-3" d="M100.87,164.67l17.4,17.08c11.11,10.91-6.43,67.38-11.5,67.38H26.48a9.26,9.26,0,0,1-9.22-9.25V157.16a9.27,9.27,0,0,1,9.22-9.26H95C95.72,147.9,97.24,161.11,100.87,164.67Z" transform="translate(-17.26 -57.49)"/><path class="cls-3" d="M93.09,61a7.72,7.72,0,0,1,7.53,7.52c0,5.3-4.37,8.82-10.33,7.07-.34-.1-.22-.24-.72-.23-14.29.27-18.32,7.61-16.8,18.78C76.58,113.78,84.44,131,95,146.54a72.16,72.16,0,0,1,2.52,7.24l-6.18,3.41a28.32,28.32,0,0,0-4.64-10.32c-7.22-13.11-15.93-28.7-20.16-47.41-2.46-9.73-2-17.57,2.74-22.7,4.88-5.34,11.25-6.18,16.37-10.23l.23-.19A7.15,7.15,0,0,1,93.09,61Z" transform="translate(-17.26 -57.49)"/><path class="cls-2" d="M179.25,183.33A15.83,15.83,0,0,1,194.34,204h0a5.41,5.41,0,0,0,.92,4c15.89,18.67,26.38,45.45,18.42,69.82-22,67.34-98.1,49.24-107.94.51-3.09-13.93-2-27.12,2.43-40.49,3.83-11.56,8.36-24.72,9.92-30.31,2.08-7.46-.17-16.78-5.19-22.62-9-7.78-17.23-16.61-21.63-28.3C89.21,151.7,95,148.7,97.61,154c15,23.93,41.37,19.77,51.63-.48,2.8-4.47,8.1-.8,5.94,3-2.06,6.72-8.22,16.21-19,28.79-2.83,4.4-6.08,8.16-8.84,17.84-3.29,11.51-7.78,27.07-13,44.2-2.26,10.59-2.36,20-.5,28.1,11.61,50.2,78.71,51.25,91.05-2a82.33,82.33,0,0,0,1.74-23.2,59.44,59.44,0,0,0-17.89-36.59c-.59-.45-1.74-.16-2.63,0a21,21,0,0,1-6.88,1.32,15.84,15.84,0,0,1,0-31.67Z" transform="translate(-17.26 -57.49)"/><path class="cls-3" d="M179.15,210.56a10.91,10.91,0,1,0-10.91-10.91A10.93,10.93,0,0,0,179.15,210.56Z" transform="translate(-17.26 -57.49)"/><path class="cls-4" d="M348.17,200.39c0-30.31,23.28-52,54.59-52,17.39,0,31.89,6.32,41.38,17.81L429.2,180c-6.76-7.75-15.23-11.78-25.29-11.78-18.82,0-32.18,13.22-32.18,32.18s13.36,32.18,32.18,32.18c10.06,0,18.53-4,25.29-11.92l14.94,13.79c-9.49,11.63-24,18-41.52,18C371.45,252.4,348.17,230.7,348.17,200.39Z" transform="translate(-17.26 -57.49)"/><path class="cls-4" d="M459.8,150.11h23.27v81.6h50.42v19H459.8Z" transform="translate(-17.26 -57.49)"/><path class="cls-4" d="M546.56,150.11h23.28V250.67H546.56Z" transform="translate(-17.26 -57.49)"/><path class="cls-4" d="M685.91,150.11V250.67H666.8l-50.13-61v61h-23V150.11h19.25l50,61.06V150.11Z" transform="translate(-17.26 -57.49)"/><path class="cls-4" d="M709.76,150.11H733V250.67H709.76Z" transform="translate(-17.26 -57.49)"/><path class="cls-1" d="M865.77,150.11V250.67h-10.2V170.22l-39.51,67.67h-5l-39.51-67.23v80h-10.2V150.11h8.76l43.68,74.56L857,150.11Z" transform="translate(-17.26 -57.49)"/><path class="cls-1" d="M969.63,241.48v9.19h-71.1V150.11h69v9.2H909.16v35.77h52v9h-52v37.35Z" transform="translate(-17.26 -57.49)"/><path class="cls-1" d="M1063.3,250.67l-23-32.32a71.15,71.15,0,0,1-8,.43h-27v31.89H994.63V150.11h37.64c25.57,0,41.09,12.93,41.09,34.48,0,15.8-8.34,26.86-23,31.6l24.57,34.48Zm-.58-66.08c0-16.09-10.62-25.28-30.74-25.28h-26.72v50.42H1032C1052.1,209.73,1062.72,200.39,1062.72,184.59Z" transform="translate(-17.26 -57.49)"/><path class="cls-1" d="M1089.59,200.39c0-29.45,22.41-51.14,52.72-51.14,14.66,0,27.87,4.88,36.78,14.65l-6.75,6.76c-8.19-8.34-18.25-11.93-29.74-11.93-24.28,0-42.52,17.82-42.52,41.66s18.24,41.66,42.52,41.66c11.49,0,21.55-3.59,29.74-12.07l6.75,6.76c-8.91,9.77-22.12,14.79-36.92,14.79C1112,251.53,1089.59,229.84,1089.59,200.39Z" transform="translate(-17.26 -57.49)"/><path class="cls-1" d="M1272.9,241.48v9.19h-71.11V150.11h69v9.2h-58.32v35.77h52v9h-52v37.35Zm-50.71-99.56h-9.48l18.53-17.81h10.34l18.53,17.81h-9.48L1236.41,130Z" transform="translate(-17.26 -57.49)"/><path class="cls-1" d="M1288.27,238.46l4.17-8.19c7.18,7,20,12.21,33.18,12.21,18.82,0,27-7.9,27-17.81,0-27.58-61.92-10.63-61.92-47.84,0-14.79,11.5-27.58,37.07-27.58,11.34,0,23.12,3.3,31.17,8.91l-3.59,8.47a51.8,51.8,0,0,0-27.58-8.33c-18.39,0-26.58,8.19-26.58,18.25,0,27.58,61.91,10.91,61.91,47.54,0,14.8-11.78,27.44-37.49,27.44C1310.54,251.53,1295.74,246.22,1288.27,238.46Z" transform="translate(-17.26 -57.49)"/><path class="cls-4" d="M365.63,283.45a15,15,0,0,0-4.43-.83,5.18,5.18,0,0,0-2.78.64,2.09,2.09,0,0,0-1,1.89,2.62,2.62,0,0,0,1.48,2.41,22.34,22.34,0,0,0,4.56,1.74,39.19,39.19,0,0,1,5.07,1.8,9,9,0,0,1,3.41,2.7,7.46,7.46,0,0,1,1.41,4.75,8.15,8.15,0,0,1-1.52,4.94,9.28,9.28,0,0,1-4.17,3.15,15.94,15.94,0,0,1-6,1.07,20.79,20.79,0,0,1-7.15-1.28,19.43,19.43,0,0,1-6.08-3.51l2.69-5.53a18.42,18.42,0,0,0,5.23,3.3,14,14,0,0,0,5.39,1.24,6,6,0,0,0,3.28-.77,2.68,2.68,0,0,0,.38-4.13,5.84,5.84,0,0,0-2-1.22c-.81-.32-1.93-.67-3.36-1.07a37,37,0,0,1-5-1.72,8.81,8.81,0,0,1-3.36-2.61,7.22,7.22,0,0,1-1.42-4.66,8,8,0,0,1,1.46-4.74,9.3,9.3,0,0,1,4.07-3.12,15.64,15.64,0,0,1,6.08-1.09,21.41,21.41,0,0,1,6.08.89,20.51,20.51,0,0,1,5.31,2.4l-2.61,5.61A23,23,0,0,0,365.63,283.45Z" transform="translate(-17.26 -57.49)"/><path class="cls-4" d="M406.31,287.29q2.9,3.21,2.9,8.95c0,.68,0,1.21,0,1.58H392.63a5.85,5.85,0,0,0,6,4.63,8,8,0,0,0,3.12-.63,8.2,8.2,0,0,0,2.7-1.82l3.47,3.52a11.7,11.7,0,0,1-4.26,3,14.53,14.53,0,0,1-5.59,1,13.27,13.27,0,0,1-6.36-1.45,10.27,10.27,0,0,1-4.2-4.11,13.54,13.54,0,0,1,0-12.31,10.51,10.51,0,0,1,4.2-4.16,12.68,12.68,0,0,1,6.17-1.47Q403.42,284.08,406.31,287.29ZM403,293.92a5.26,5.26,0,0,0-1.46-3.64,4.93,4.93,0,0,0-3.64-1.37,5,5,0,0,0-3.58,1.35,6.32,6.32,0,0,0-1.82,3.66Z" transform="translate(-17.26 -57.49)"/><path class="cls-4" d="M445.13,284.29v20.9a10.29,10.29,0,0,1-1.54,5.67,10.15,10.15,0,0,1-4.33,3.73,14.93,14.93,0,0,1-6.42,1.3,17.63,17.63,0,0,1-5.37-.81,18.17,18.17,0,0,1-4.65-2.23l2.44-4.62a12.08,12.08,0,0,0,7.15,2.31,6.84,6.84,0,0,0,4.5-1.39,4.64,4.64,0,0,0,1.67-3.75v-2.61a7.65,7.65,0,0,1-2.91,2.48,9.08,9.08,0,0,1-4,.86,9.93,9.93,0,0,1-5.24-1.39,9.4,9.4,0,0,1-3.56-3.92,12.92,12.92,0,0,1-1.26-5.83,12.38,12.38,0,0,1,1.26-5.71,9.28,9.28,0,0,1,3.56-3.83,9.92,9.92,0,0,1,5.24-1.37,8.82,8.82,0,0,1,4,.87,8.4,8.4,0,0,1,3,2.47v-3.13Zm-8.05,15.18a6.14,6.14,0,0,0,1.5-4.3,6.23,6.23,0,0,0-1.5-4.33,5.38,5.38,0,0,0-7.79,0,6.85,6.85,0,0,0,0,8.63,5.45,5.45,0,0,0,7.81,0Z" transform="translate(-17.26 -57.49)"/><path class="cls-4" d="M483.07,284.29v23h-6.55v-4.07q-2.36,4.32-7.71,4.32a8,8,0,0,1-6.06-2.37,9,9,0,0,1-2.25-6.45V284.29h6.6v12.59a4.81,4.81,0,0,0,1.15,3.42,4.12,4.12,0,0,0,3.17,1.25,4.77,4.77,0,0,0,3.73-1.67,6.34,6.34,0,0,0,1.37-4.2V284.29Z" transform="translate(-17.26 -57.49)"/><path class="cls-4" d="M509.19,285.19a9.16,9.16,0,0,1,4.5-1.16v6.21a9,9,0,0,0-1,0,6.81,6.81,0,0,0-4.82,1.65,5.72,5.72,0,0,0-1.78,4.39v11.09h-6.59v-23h6.59v4.15A8.45,8.45,0,0,1,509.19,285.19Z" transform="translate(-17.26 -57.49)"/><path class="cls-4" d="M540.66,307.33v-2.7a7.48,7.48,0,0,1-3,2.23,11,11,0,0,1-4.24.77,8.16,8.16,0,0,1-5.78-2,6.79,6.79,0,0,1-2.15-5.21,6.12,6.12,0,0,1,2.29-5.07,10.36,10.36,0,0,1,6.49-1.86h6.34v-.43a3.49,3.49,0,0,0-1.22-2.85,5.52,5.52,0,0,0-3.58-1,14.18,14.18,0,0,0-6.85,2l-2.05-4.54a27.07,27.07,0,0,1,5.14-2,20.6,20.6,0,0,1,5.26-.64q4.63,0,7.18,2.19a7.72,7.72,0,0,1,2.59,6.08l0,15Zm-1.84-5.4a3.82,3.82,0,0,0,1.8-2.48v-2.06h-5.18a5.19,5.19,0,0,0-2.85.62,2.24,2.24,0,0,0-.92,2,2.59,2.59,0,0,0,1,2.12,4,4,0,0,0,2.64.8A6.29,6.29,0,0,0,538.82,301.93Z" transform="translate(-17.26 -57.49)"/><path class="cls-4" d="M583.55,286.43a8.94,8.94,0,0,1,2.29,6.42v14.48h-6.6V294.78a4.74,4.74,0,0,0-1.22-3.45,4.39,4.39,0,0,0-3.31-1.26,4.94,4.94,0,0,0-3.86,1.69,6.27,6.27,0,0,0-1.41,4.22v11.35h-6.6v-23h6.6v4q2.4-4.19,8-4.28A8.11,8.11,0,0,1,583.55,286.43Z" transform="translate(-17.26 -57.49)"/><path class="cls-4" d="M618.13,305.89a12.18,12.18,0,0,1-5,1.61l-.82,2.14A4.94,4.94,0,0,1,615,311a3.05,3.05,0,0,1,.85,2.16,3.42,3.42,0,0,1-1.5,3,6.53,6.53,0,0,1-3.76,1,12.35,12.35,0,0,1-4.5-.9l1.11-3.21a6.52,6.52,0,0,0,2.32.43,2.5,2.5,0,0,0,1.26-.28.77.77,0,0,0,.49-.66.86.86,0,0,0-.6-.79,3.85,3.85,0,0,0-1.63-.28h-1.15l1.28-4a10.7,10.7,0,0,1-7-3.77,11.76,11.76,0,0,1-2.59-7.75,12.61,12.61,0,0,1,1.48-6.18,10.45,10.45,0,0,1,4.15-4.16,12.67,12.67,0,0,1,6.19-1.47,13.16,13.16,0,0,1,5.87,1.26,10.32,10.32,0,0,1,4.11,3.57l-4.45,3.22a6.31,6.31,0,0,0-5.14-2.45,5.25,5.25,0,0,0-4,1.7,6.32,6.32,0,0,0-1.56,4.47,6.54,6.54,0,0,0,1.54,4.52,5.05,5.05,0,0,0,3.94,1.73,6,6,0,0,0,5.35-2.69l4.54,3.08A9.69,9.69,0,0,1,618.13,305.89Z" transform="translate(-17.26 -57.49)"/><path class="cls-4" d="M649,307.33v-2.7a7.44,7.44,0,0,1-3,2.23,11,11,0,0,1-4.24.77,8.2,8.2,0,0,1-5.78-2,6.82,6.82,0,0,1-2.14-5.21,6.12,6.12,0,0,1,2.29-5.07,10.36,10.36,0,0,1,6.49-1.86H649v-.43a3.49,3.49,0,0,0-1.22-2.85,5.53,5.53,0,0,0-3.58-1,14.18,14.18,0,0,0-6.85,2l-2.05-4.54a27,27,0,0,1,5.13-2,20.74,20.74,0,0,1,5.27-.64q4.62,0,7.17,2.19a7.65,7.65,0,0,1,2.59,6.08l0,15Zm-1.84-5.4a3.82,3.82,0,0,0,1.8-2.48v-2.06h-5.18A5.19,5.19,0,0,0,641,298a2.22,2.22,0,0,0-.92,2,2.59,2.59,0,0,0,1,2.12,4,4,0,0,0,2.64.8A6.29,6.29,0,0,0,647.2,301.93Z" transform="translate(-17.26 -57.49)"/><path class="cls-4" d="M699.59,287.29q2.89,3.21,2.89,8.95c0,.68,0,1.21,0,1.58H685.91a6,6,0,0,0,2.14,3.41,6.09,6.09,0,0,0,3.81,1.22,8,8,0,0,0,3.13-.63,8.2,8.2,0,0,0,2.7-1.82l3.46,3.52a11.7,11.7,0,0,1-4.26,3,14.48,14.48,0,0,1-5.58,1,13.27,13.27,0,0,1-6.36-1.45,10.15,10.15,0,0,1-4.2-4.11,13.46,13.46,0,0,1,0-12.31,10.51,10.51,0,0,1,4.2-4.16,12.66,12.66,0,0,1,6.16-1.47Q696.7,284.08,699.59,287.29Zm-3.32,6.63a5.26,5.26,0,0,0-1.45-3.64,5,5,0,0,0-3.64-1.37,5,5,0,0,0-3.58,1.35,6.27,6.27,0,0,0-1.82,3.66Z" transform="translate(-17.26 -57.49)"/><path class="cls-4" d="M727,277.35h7.54l9.34,18.42,9.24-18.42h7.5v30h-6.08V287.07L746,304.29h-4.37l-8.57-17.22v20.26H727Z" transform="translate(-17.26 -57.49)"/><path class="cls-4" d="M795.47,287.29c1.92,2.14,2.89,5.12,2.89,8.95,0,.68,0,1.21-.05,1.58H781.78a5.87,5.87,0,0,0,6,4.63,8,8,0,0,0,3.12-.63,8.2,8.2,0,0,0,2.7-1.82l3.47,3.52a11.7,11.7,0,0,1-4.26,3,14.5,14.5,0,0,1-5.59,1,13.27,13.27,0,0,1-6.36-1.45,10.18,10.18,0,0,1-4.19-4.11,13.46,13.46,0,0,1,0-12.31,10.42,10.42,0,0,1,4.19-4.16,12.7,12.7,0,0,1,6.17-1.47Q792.58,284.08,795.47,287.29Zm-3.32,6.63a5.26,5.26,0,0,0-1.46-3.64,4.93,4.93,0,0,0-3.64-1.37,5,5,0,0,0-3.57,1.35,6.21,6.21,0,0,0-1.82,3.66Z" transform="translate(-17.26 -57.49)"/><path class="cls-4" d="M835.44,275.55v31.78h-6.55v-3.39a8.12,8.12,0,0,1-3.09,2.72,9.13,9.13,0,0,1-4.19.92,11,11,0,0,1-5.72-1.47,10,10,0,0,1-3.81-4.18,13.71,13.71,0,0,1-1.35-6.21,13.45,13.45,0,0,1,1.33-6.12,9.69,9.69,0,0,1,3.77-4.11,10.71,10.71,0,0,1,5.61-1.46,8.58,8.58,0,0,1,7.45,3.64V275.55Zm-8.16,24.95a7.39,7.39,0,0,0,0-9.21,5.34,5.34,0,0,0-4.13-1.78,5.4,5.4,0,0,0-4.18,1.78,7.29,7.29,0,0,0,0,9.21,5.39,5.39,0,0,0,4.18,1.77A5.33,5.33,0,0,0,827.28,300.5Z" transform="translate(-17.26 -57.49)"/><path class="cls-4" d="M857.9,275.08a4,4,0,0,1,0,5.31,3.46,3.46,0,0,1-2.59,1,3.38,3.38,0,0,1-2.55-1.05,4,4,0,0,1,0-5.29,3.43,3.43,0,0,1,2.55-1A3.49,3.49,0,0,1,857.9,275.08Zm-5.85,9.21h6.6v23h-6.6Z" transform="translate(-17.26 -57.49)"/><path class="cls-4" d="M885.24,289.68a5.25,5.25,0,0,0-4,1.7,6.32,6.32,0,0,0-1.56,4.47,6.54,6.54,0,0,0,1.54,4.52,5.05,5.05,0,0,0,3.94,1.73,6,6,0,0,0,5.35-2.69l4.54,3.08a9.76,9.76,0,0,1-4.09,3.77,13.51,13.51,0,0,1-6.14,1.32,12.57,12.57,0,0,1-6.13-1.45,10.34,10.34,0,0,1-4.13-4.11,12.44,12.44,0,0,1-1.48-6.13,12.61,12.61,0,0,1,1.48-6.18,10.41,10.41,0,0,1,4.16-4.16,12.61,12.61,0,0,1,6.18-1.47,13.16,13.16,0,0,1,5.87,1.26,10.32,10.32,0,0,1,4.11,3.57l-4.45,3.22A6.31,6.31,0,0,0,885.24,289.68Z" transform="translate(-17.26 -57.49)"/><path class="cls-4" d="M915,275.08a4,4,0,0,1,0,5.31,3.46,3.46,0,0,1-2.59,1,3.38,3.38,0,0,1-2.55-1.05,4,4,0,0,1,0-5.29,3.43,3.43,0,0,1,2.55-1A3.49,3.49,0,0,1,915,275.08Zm-5.85,9.21h6.6v23h-6.6Z" transform="translate(-17.26 -57.49)"/><path class="cls-4" d="M952.79,286.43a8.94,8.94,0,0,1,2.29,6.42v14.48h-6.6V294.78a4.74,4.74,0,0,0-1.22-3.45,4.4,4.4,0,0,0-3.32-1.26,4.93,4.93,0,0,0-3.85,1.69,6.27,6.27,0,0,0-1.41,4.22v11.35h-6.6v-23h6.6v4q2.4-4.19,8-4.28A8.11,8.11,0,0,1,952.79,286.43Z" transform="translate(-17.26 -57.49)"/><path class="cls-4" d="M984.15,307.33v-2.7a7.48,7.48,0,0,1-3,2.23,11,11,0,0,1-4.24.77,8.16,8.16,0,0,1-5.78-2,6.79,6.79,0,0,1-2.15-5.21,6.1,6.1,0,0,1,2.3-5.07,10.3,10.3,0,0,1,6.48-1.86h6.34v-.43a3.49,3.49,0,0,0-1.22-2.85,5.52,5.52,0,0,0-3.58-1,14.18,14.18,0,0,0-6.85,2l-2.05-4.54a27.07,27.07,0,0,1,5.14-2,20.6,20.6,0,0,1,5.26-.64q4.63,0,7.18,2.19a7.72,7.72,0,0,1,2.59,6.08l0,15Zm-1.84-5.4a3.82,3.82,0,0,0,1.8-2.48v-2.06h-5.18a5.19,5.19,0,0,0-2.85.62,2.24,2.24,0,0,0-.92,2,2.59,2.59,0,0,0,1,2.12,4,4,0,0,0,2.64.8A6.29,6.29,0,0,0,982.31,301.93Z" transform="translate(-17.26 -57.49)"/><path class="cls-4" d="M1039.09,275.55v31.78h-6.55v-3.39a8.16,8.16,0,0,1-3.08,2.72,9.2,9.2,0,0,1-4.2.92,11,11,0,0,1-5.72-1.47,10,10,0,0,1-3.81-4.18,14.85,14.85,0,0,1,0-12.33,9.75,9.75,0,0,1,3.77-4.11,10.76,10.76,0,0,1,5.61-1.46,8.57,8.57,0,0,1,7.45,3.64V275.55Zm-8.16,24.95a7.39,7.39,0,0,0,0-9.21,5.32,5.32,0,0,0-4.13-1.78,5.38,5.38,0,0,0-4.17,1.78,7.25,7.25,0,0,0,0,9.21,5.37,5.37,0,0,0,4.17,1.77A5.31,5.31,0,0,0,1030.93,300.5Z" transform="translate(-17.26 -57.49)"/><path class="cls-4" d="M1072.56,285.53a10.44,10.44,0,0,1,4.34,4.11,13.07,13.07,0,0,1,0,12.31,10.55,10.55,0,0,1-4.34,4.16,15,15,0,0,1-12.94,0,10.61,10.61,0,0,1-4.34-4.16,13.07,13.07,0,0,1,0-12.31,10.5,10.5,0,0,1,4.34-4.11,15.16,15.16,0,0,1,12.94,0Zm-10.62,5.78a7.33,7.33,0,0,0,0,9.17,5.39,5.39,0,0,0,4.17,1.75,5.33,5.33,0,0,0,4.13-1.75,7.33,7.33,0,0,0,0-9.17,5.33,5.33,0,0,0-4.13-1.75A5.39,5.39,0,0,0,1061.94,291.31Z" transform="translate(-17.26 -57.49)"/><path class="cls-4" d="M1100,277.35h25v5.74h-9.17v24.24h-6.76V283.09H1100Z" transform="translate(-17.26 -57.49)"/><path class="cls-4" d="M1148.33,285.19a9.15,9.15,0,0,1,4.49-1.16v6.21a8.77,8.77,0,0,0-1,0,6.79,6.79,0,0,0-4.82,1.65,5.68,5.68,0,0,0-1.78,4.39v11.09h-6.59v-23h6.59v4.15A8.38,8.38,0,0,1,1148.33,285.19Z" transform="translate(-17.26 -57.49)"/><path class="cls-4" d="M1179.8,307.33v-2.7a7.44,7.44,0,0,1-3,2.23,11,11,0,0,1-4.24.77,8.2,8.2,0,0,1-5.78-2,6.82,6.82,0,0,1-2.14-5.21,6.12,6.12,0,0,1,2.29-5.07,10.36,10.36,0,0,1,6.49-1.86h6.34v-.43a3.49,3.49,0,0,0-1.22-2.85,5.53,5.53,0,0,0-3.58-1,14.18,14.18,0,0,0-6.85,2l-2.06-4.54a27.33,27.33,0,0,1,5.14-2,20.74,20.74,0,0,1,5.27-.64q4.62,0,7.17,2.19a7.65,7.65,0,0,1,2.59,6.08l0,15Zm-1.84-5.4a3.82,3.82,0,0,0,1.8-2.48v-2.06h-5.18a5.19,5.19,0,0,0-2.85.62,2.22,2.22,0,0,0-.92,2,2.59,2.59,0,0,0,1,2.12,4,4,0,0,0,2.64.8A6.29,6.29,0,0,0,1178,301.93Z" transform="translate(-17.26 -57.49)"/><path class="cls-4" d="M1221.74,285.55a9.9,9.9,0,0,1,3.81,4.18,13.71,13.71,0,0,1,1.35,6.21,13.46,13.46,0,0,1-1.32,6.1,9.9,9.9,0,0,1-3.75,4.09,10.7,10.7,0,0,1-5.63,1.45,9.4,9.4,0,0,1-4.26-.92,8.57,8.57,0,0,1-3.15-2.67v3.34h-6.59V275.55h6.59v12.12a8.19,8.19,0,0,1,3.1-2.67,9.26,9.26,0,0,1,4.18-.92A10.84,10.84,0,0,1,1221.74,285.55Zm-3.1,14.78a7.44,7.44,0,0,0,0-9.17,5.68,5.68,0,0,0-8.24,0,7.36,7.36,0,0,0,0,9.19,5.33,5.33,0,0,0,4.13,1.75A5.27,5.27,0,0,0,1218.64,300.33Z" transform="translate(-17.26 -57.49)"/><path class="cls-4" d="M1254.65,307.33v-2.7a7.44,7.44,0,0,1-3,2.23,11,11,0,0,1-4.24.77,8.2,8.2,0,0,1-5.78-2,6.82,6.82,0,0,1-2.14-5.21,6.09,6.09,0,0,1,2.29-5.07,10.36,10.36,0,0,1,6.49-1.86h6.34v-.43a3.49,3.49,0,0,0-1.22-2.85,5.53,5.53,0,0,0-3.58-1,14.18,14.18,0,0,0-6.85,2l-2.06-4.54a27.33,27.33,0,0,1,5.14-2,20.74,20.74,0,0,1,5.27-.64q4.62,0,7.17,2.19a7.69,7.69,0,0,1,2.59,6.08l0,15Zm-1.84-5.4a3.82,3.82,0,0,0,1.8-2.48v-2.06h-5.18a5.19,5.19,0,0,0-2.85.62,2.22,2.22,0,0,0-.92,2,2.59,2.59,0,0,0,1,2.12,4,4,0,0,0,2.63.8A6.3,6.3,0,0,0,1252.81,301.93Z" transform="translate(-17.26 -57.49)"/><path class="cls-4" d="M1277,275.55h6.6v31.78H1277Z" transform="translate(-17.26 -57.49)"/><path class="cls-4" d="M1321.21,286.43a8.9,8.9,0,0,1,2.3,6.42v14.48h-6.6V294.78a4.78,4.78,0,0,0-1.22-3.45,4.4,4.4,0,0,0-3.32-1.26,5,5,0,0,0-3.87,1.69,6.19,6.19,0,0,0-1.44,4.22v11.35h-6.59V275.55h6.59v12.81q2.4-4.25,8-4.33A8.13,8.13,0,0,1,1321.21,286.43Z" transform="translate(-17.26 -57.49)"/><path class="cls-4" d="M1356,285.53a10.44,10.44,0,0,1,4.34,4.11,13,13,0,0,1,0,12.31,10.55,10.55,0,0,1-4.34,4.16,15,15,0,0,1-12.93,0,10.64,10.64,0,0,1-4.35-4.16,13.07,13.07,0,0,1,0-12.31,10.52,10.52,0,0,1,4.35-4.11,15.14,15.14,0,0,1,12.93,0Zm-10.62,5.78a7.33,7.33,0,0,0,0,9.17,5.81,5.81,0,0,0,8.31,0,7.37,7.37,0,0,0,0-9.17,5.81,5.81,0,0,0-8.31,0Z" transform="translate(-17.26 -57.49)"/></svg>