<svg xmlns="http://www.w3.org/2000/svg" version="1.1" xmlns:xlink="http://www.w3.org/1999/xlink" xmlns:svgjs="http://svgjs.dev/svgjs" width="284" height="282"><svg width="284" height="282" viewBox="0 0 284 282" fill="none" xmlns="http://www.w3.org/2000/svg">
<g clip-path="url(#clip0_961_968)">
<path d="M183.4 0H101.02C95.9277 0 91.7998 4.12793 91.7998 9.22V273.25C91.7998 278.342 95.9277 282.47 101.02 282.47H183.4C188.492 282.47 192.62 278.342 192.62 273.25V9.22C192.62 4.12793 188.492 0 183.4 0Z" fill="#07341B"></path>
<path d="M274.79 90.8203H10.5999C5.50782 90.8203 1.37988 94.9482 1.37988 100.04V182.42C1.37988 187.512 5.50782 191.64 10.5999 191.64H274.79C279.882 191.64 284.01 187.512 284.01 182.42V100.04C284.01 94.9482 279.882 90.8203 274.79 90.8203Z" fill="#07341B"></path>
<path fill-rule="evenodd" clip-rule="evenodd" d="M141.74 89.7898C140.93 93.3198 134.39 92.3598 135.15 88.1398C141.77 70.7598 144.47 49.8598 143.28 28.5798C142.18 21.4798 136.65 17.7398 124.05 17.3598C123.456 18.3173 122.607 19.0909 121.599 19.5942C120.591 20.0974 119.463 20.3106 118.34 20.2098C115.19 20.2098 111.18 16.9998 111.18 13.0498C111.183 11.5184 111.676 10.0281 112.589 8.79796C113.501 7.56778 114.783 6.66245 116.248 6.21491C117.712 5.76737 119.282 5.8012 120.726 6.31144C122.17 6.82168 123.412 7.78144 124.27 9.04979C140.5 12.5098 148.62 15.1398 150.74 29.2298C151.31 42.0098 150.12 54.9398 148.3 67.9298C146.554 75.3414 144.363 82.6412 141.74 89.7898Z" fill="white"></path>
<path fill-rule="evenodd" clip-rule="evenodd" d="M192.62 214.85V273.25C192.599 275.706 191.607 278.054 189.861 279.781C188.115 281.508 185.756 282.475 183.3 282.47H100.07C97.6138 282.475 95.2553 281.508 93.5091 279.781C91.763 278.054 90.7711 275.706 90.75 273.25V214.85C100.01 285.45 199.15 266.19 192.62 214.85Z" fill="#008545"></path>
<path fill-rule="evenodd" clip-rule="evenodd" d="M83.61 107.18L101.01 124.26C112.12 135.17 94.58 191.64 89.51 191.64H9.22C6.77276 191.63 4.42922 190.651 2.70156 188.917C0.973899 187.184 0.00262 184.837 0 182.39V99.6702C0.00260537 97.222 0.973562 94.8742 2.70094 93.1394C4.42832 91.4045 6.77185 90.4234 9.22 90.4102H77.74C78.46 90.4102 79.98 103.62 83.61 107.18Z" fill="#008545"></path>
<path fill-rule="evenodd" clip-rule="evenodd" d="M75.8302 3.50985C77.8104 3.55795 79.6964 4.36537 81.098 5.76508C82.4995 7.16479 83.3095 9.04969 83.3602 11.0298C83.3602 16.3298 78.9902 19.8498 73.0302 18.0998C72.6902 17.9998 72.8102 17.8598 72.3102 17.8698C58.0202 18.1398 53.9902 25.4798 55.5102 36.6498C59.3202 56.2898 67.1802 73.5098 77.7402 89.0498C78.7079 91.4168 79.5491 93.8336 80.2602 96.2898L74.0802 99.6999C73.2435 95.9827 71.6653 92.4727 69.4402 89.3798C62.2202 76.2698 53.5102 60.6798 49.2802 41.9698C46.8202 32.2398 47.2802 24.3998 52.0202 19.2698C56.9002 13.9298 63.2702 13.0898 68.3902 9.03985L68.6202 8.84984C69.032 7.27051 69.9718 5.8796 71.2834 4.90819C72.595 3.93678 74.1994 3.44334 75.8302 3.50985Z" fill="#008545"></path>
<path fill-rule="evenodd" clip-rule="evenodd" d="M161.99 125.841C164.485 125.838 166.945 126.425 169.17 127.554C171.395 128.683 173.322 130.322 174.793 132.337C176.264 134.352 177.238 136.687 177.636 139.15C178.033 141.613 177.843 144.135 177.08 146.511C176.849 147.913 177.18 149.35 178 150.511C193.89 169.181 204.38 195.961 196.42 220.331C174.42 287.671 98.3198 269.571 88.4798 220.841C85.3898 206.911 86.4798 193.721 90.9098 180.351C94.7398 168.791 99.2698 155.631 100.83 150.041C102.91 142.581 100.66 133.261 95.6398 127.421C86.6398 119.641 78.4098 110.811 74.0098 99.1209C71.9498 94.2109 77.7398 91.2109 80.3498 96.5109C95.3498 120.441 121.72 116.281 131.98 96.0309C134.78 91.5609 140.08 95.2309 137.92 99.0309C135.86 105.751 129.7 115.241 118.92 127.821C116.09 132.221 112.84 135.981 110.08 145.661C106.79 157.171 102.3 172.731 97.0798 189.861C94.8198 200.451 94.7198 209.861 96.5798 217.961C108.19 268.161 175.29 269.211 187.63 215.961C189.305 208.349 189.891 200.538 189.37 192.761C187.902 178.838 181.566 165.88 171.48 156.171C170.89 155.721 169.74 156.011 168.85 156.171C166.647 156.993 164.321 157.439 161.97 157.491C157.839 157.387 153.912 155.673 151.027 152.715C148.142 149.757 146.528 145.788 146.528 141.656C146.528 137.524 148.142 133.555 151.027 130.597C153.912 127.639 157.839 125.925 161.97 125.821L161.99 125.841Z" fill="white"></path>
<path fill-rule="evenodd" clip-rule="evenodd" d="M161.89 153.07C164.048 153.07 166.157 152.43 167.951 151.231C169.745 150.033 171.144 148.329 171.969 146.335C172.795 144.342 173.011 142.148 172.59 140.032C172.169 137.915 171.13 135.971 169.605 134.445C168.079 132.92 166.135 131.881 164.018 131.46C161.902 131.039 159.708 131.255 157.715 132.08C155.721 132.906 154.017 134.305 152.819 136.099C151.62 137.893 150.98 140.002 150.98 142.16C150.985 145.052 152.136 147.824 154.181 149.869C156.226 151.914 158.998 153.065 161.89 153.07Z" fill="#008545"></path>
</g>
<defs>
<clipPath id="SvgjsClipPath1027">
<rect width="284" height="282" fill="white"></rect>
</clipPath>
</defs>
</svg><style>@media (prefers-color-scheme: light) { :root { filter: none; } }
@media (prefers-color-scheme: dark) { :root { filter: none; } }
</style></svg>